<svg width="176" height="176" viewBox="0 0 176 176" fill="none" xmlns="http://www.w3.org/2000/svg">
  <rect x="1" y="1" width="174" height="174" rx="35" fill="#EB5757"/>
  <rect x="1" y="1" width="174" height="174" rx="35" stroke="#EDEDED" stroke-width="2"/>
  <path d="M102.297 107.42C102.297 105.947 102.07 104.626 101.617 103.455C101.202 102.247 100.409 101.152 99.2383 100.17C98.0677 99.1504 96.4251 98.1497 94.3105 97.168C92.196 96.1862 89.4583 95.1667 86.0977 94.1094C82.3594 92.901 78.8099 91.5417 75.4492 90.0312C72.1263 88.5208 69.181 86.765 66.6133 84.7637C64.0833 82.7246 62.082 80.3646 60.6094 77.6836C59.1745 75.0026 58.457 71.8874 58.457 68.3379C58.457 64.9017 59.2122 61.7865 60.7227 58.9922C62.2331 56.1602 64.3477 53.7435 67.0664 51.7422C69.7852 49.7031 72.9948 48.1361 76.6953 47.041C80.4336 45.946 84.5306 45.3984 88.9863 45.3984C95.0658 45.3984 100.371 46.4935 104.902 48.6836C109.434 50.8737 112.945 53.8757 115.438 57.6895C117.967 61.5033 119.232 65.8646 119.232 70.7734H102.354C102.354 68.3568 101.844 66.2422 100.824 64.4297C99.8424 62.5794 98.332 61.1257 96.293 60.0684C94.2917 59.0111 91.7617 58.4824 88.7031 58.4824C85.7578 58.4824 83.3034 58.9355 81.3398 59.8418C79.3763 60.7103 77.9036 61.8997 76.9219 63.4102C75.9401 64.8828 75.4492 66.5443 75.4492 68.3945C75.4492 69.7917 75.7891 71.0566 76.4688 72.1895C77.1862 73.3223 78.2435 74.3796 79.6406 75.3613C81.0378 76.3431 82.7559 77.2682 84.7949 78.1367C86.834 79.0052 89.194 79.8548 91.875 80.6855C96.3685 82.0449 100.314 83.5742 103.713 85.2734C107.149 86.9727 110.019 88.8796 112.322 90.9941C114.626 93.1087 116.363 95.5065 117.533 98.1875C118.704 100.868 119.289 103.908 119.289 107.307C119.289 110.894 118.59 114.104 117.193 116.936C115.796 119.768 113.776 122.165 111.133 124.129C108.49 126.092 105.337 127.584 101.674 128.604C98.0111 129.623 93.9141 130.133 89.3828 130.133C85.3047 130.133 81.2832 129.604 77.3184 128.547C73.3535 127.452 69.7474 125.809 66.5 123.619C63.2904 121.429 60.7227 118.635 58.7969 115.236C56.8711 111.838 55.9082 107.816 55.9082 103.172H72.957C72.957 105.74 73.3535 107.911 74.1465 109.686C74.9395 111.46 76.0534 112.895 77.4883 113.99C78.9609 115.085 80.6979 115.878 82.6992 116.369C84.7383 116.86 86.9661 117.105 89.3828 117.105C92.3281 117.105 94.7448 116.69 96.6328 115.859C98.5586 115.029 99.9746 113.877 100.881 112.404C101.825 110.932 102.297 109.27 102.297 107.42Z" fill="white"/>
</svg>
